<svg width="30" height="41" viewBox="0 0 30 41" fill="none" xmlns="http://www.w3.org/2000/svg">
<path d="M2.37932 39.5599C4.16905 40.855 6.6109 40.4131 7.83336 38.5731C9.05582 36.733 8.59596 34.1914 6.80623 32.8964C5.0165 31.6013 2.57464 32.0432 1.35218 33.8832C0.129727 35.7233 0.58959 38.2649 2.37932 39.5599ZM23.1257 8.33177C24.9155 9.62683 27.3573 9.18499 28.5798 7.34492C29.8022 5.50484 29.3424 2.96331 27.5527 1.66825C25.7629 0.373198 23.3211 0.815026 22.0986 2.65511C20.8762 4.49518 21.336 7.03671 23.1257 8.33177ZM5.20038 36.6678L25.9468 5.43968L24.7316 4.56034L3.98516 35.7885L5.20038 36.6678Z" fill="white"/>
<path d="M27.3908 40.2387C29.192 38.9595 29.6739 36.4224 28.4673 34.5719C27.2606 32.7214 24.8224 32.2583 23.0213 33.5374C21.2202 34.8166 20.7382 37.3537 21.9448 39.2042C23.1515 41.0547 25.5897 41.5179 27.3908 40.2387ZM6.90617 8.8229C8.70729 7.54373 9.18923 5.00664 7.98261 3.15613C6.77599 1.30563 4.33773 0.842467 2.53662 2.12163C0.735498 3.4008 0.253563 5.9379 1.46018 7.7884C2.6668 9.63891 5.10506 10.1021 6.90617 8.8229ZM25.8175 36.4538L5.33287 5.03799L4.10992 5.90654L24.5946 37.3223L25.8175 36.4538Z" fill="white"/>
</svg>
