<svg width="54" height="54" viewBox="0 0 54 54" fill="none" xmlns="http://www.w3.org/2000/svg">
<circle cx="27" cy="27" r="27" fill="#3C4242"/>
<path fill-rule="evenodd" clip-rule="evenodd" d="M25.8293 15H29.7787C30.0314 14.9998 30.2516 14.9997 30.4595 15.0351C31.2809 15.1749 31.9918 15.721 32.376 16.5074C32.4732 16.7064 32.5427 16.9291 32.6225 17.1847L32.753 17.6016C32.775 17.6722 32.7813 17.6922 32.7866 17.7079C32.9912 18.3106 33.5215 18.718 34.1225 18.7342C34.1384 18.7346 34.1577 18.7347 34.2279 18.7347H37.7318C38.2156 18.7347 38.6078 19.1527 38.6078 19.6684C38.6078 20.184 38.2156 20.602 37.7318 20.602H17.876C17.3922 20.602 17 20.184 17 19.6684C17 19.1527 17.3922 18.7347 17.876 18.7347H21.38C21.4502 18.7347 21.4695 18.7346 21.4853 18.7342C22.0864 18.718 22.6167 18.3106 22.8213 17.7079C22.8266 17.6921 22.8328 17.6725 22.855 17.6016L22.9854 17.1847C23.0651 16.9291 23.1346 16.7064 23.2319 16.5074C23.6161 15.721 24.3269 15.1749 25.1484 15.0351C25.3563 14.9997 25.5765 14.9998 25.8293 15ZM24.3094 18.7347C24.3696 18.6089 24.4229 18.4783 24.4688 18.3431C24.4827 18.3021 24.4964 18.2584 24.5139 18.2023L24.6305 17.8295C24.7369 17.489 24.7615 17.4196 24.7858 17.3698C24.9139 17.1077 25.1508 16.9257 25.4246 16.8791C25.4766 16.8702 25.5461 16.8674 25.8829 16.8674H29.725C30.0617 16.8674 30.1313 16.8702 30.1833 16.8791C30.457 16.9257 30.694 17.1077 30.8222 17.3698C30.8465 17.4196 30.871 17.489 30.9774 17.8295L31.0939 18.202L31.1392 18.3431C31.1851 18.4783 31.2383 18.6089 31.2985 18.7347H24.3094Z" fill="white"/>
<path d="M20.419 22.2428C20.3856 21.7466 19.9519 21.3712 19.4503 21.4043C18.9487 21.4374 18.5692 21.8664 18.6026 22.3625L19.1651 30.7077C19.2689 32.2475 19.3527 33.4913 19.5492 34.4673C19.7536 35.4821 20.1012 36.3297 20.8192 36.9941C21.5372 37.6584 22.4153 37.9452 23.4525 38.0793C24.4501 38.2085 25.7103 38.2085 27.2705 38.2084H28.3372C29.8974 38.2085 31.1576 38.2085 32.1553 38.0793C33.1925 37.9452 34.0707 37.6584 34.7887 36.9941C35.5066 36.3297 35.8542 35.4821 36.0586 34.4673C36.2552 33.4914 36.3389 32.2475 36.4427 30.7077L37.0052 22.3625C37.0386 21.8664 36.6591 21.4374 36.1575 21.4043C35.6559 21.3712 35.2222 21.7466 35.1888 22.2428L34.6305 30.5247C34.5215 32.1427 34.4439 33.2684 34.2732 34.1156C34.1077 34.9372 33.8767 35.3721 33.5449 35.6792C33.2131 35.9862 32.759 36.1853 31.9192 36.2939C31.0534 36.4059 29.9126 36.4077 28.2732 36.4077H27.3346C25.6953 36.4077 24.5544 36.4059 23.6886 36.2939C22.8488 36.1853 22.3947 35.9862 22.0629 35.6792C21.7311 35.3721 21.5001 34.9372 21.3346 34.1156C21.164 33.2684 21.0863 32.1427 20.9772 30.5247L20.419 22.2428Z" fill="white"/>
<path d="M25.0134 24.6082C25.5081 24.5573 25.9493 24.9276 25.9988 25.435L26.599 31.591C26.6484 32.0985 26.2875 32.551 25.7927 32.6017C25.298 32.6525 24.8568 32.2822 24.8073 31.7749L24.2072 25.6188C24.1577 25.1113 24.5187 24.6589 25.0134 24.6082Z" fill="white"/>
<path d="M30.5945 24.6082C31.0892 24.6589 31.4502 25.1113 31.4007 25.6188L30.8006 31.7749C30.7511 32.2822 30.3099 32.6525 29.8152 32.6017C29.3204 32.551 28.9595 32.0985 29.0089 31.591L29.6091 25.435C29.6586 24.9276 30.0998 24.5573 30.5945 24.6082Z" fill="white"/>
</svg>
