<svg width="40" height="40" viewBox="0 0 40 40" fill="none" xmlns="http://www.w3.org/2000/svg">
<path d="M8.29412 27.5294L7 28.8235V34H12.1765L19.9412 26.2353M25.1176 21.0588L29 17.1765L23.8235 12L19.9412 15.8824M25.1176 21.0588L23.8235 22.3529M25.1176 21.0588L19.9412 15.8824M19.9412 15.8824L11.5294 24.2941" stroke="#323131" stroke-width="2" stroke-linecap="round" stroke-linejoin="round"/>
<path d="M8.29412 27.5294L7 28.8235V34H12.1765L19.9412 26.2353M25.1176 21.0588L29 17.1765L23.8235 12L19.9412 15.8824M25.1176 21.0588L23.8235 22.3529M25.1176 21.0588L19.9412 15.8824M19.9412 15.8824L11.5294 24.2941" stroke="#323131" stroke-width="2" stroke-linecap="round" stroke-linejoin="round"/>
<path d="M8.29412 27.5294L7 28.8235V34H12.1765L19.9412 26.2353M25.1176 21.0588L29 17.1765L23.8235 12L19.9412 15.8824M25.1176 21.0588L23.8235 22.3529M25.1176 21.0588L19.9412 15.8824M19.9412 15.8824L11.5294 24.2941" stroke="#323131" stroke-width="2" stroke-linecap="round" stroke-linejoin="round"/>
<path d="M8.29412 27.5294L7 28.8235V34H12.1765L19.9412 26.2353M25.1176 21.0588L29 17.1765L23.8235 12L19.9412 15.8824M25.1176 21.0588L23.8235 22.3529M25.1176 21.0588L19.9412 15.8824M19.9412 15.8824L11.5294 24.2941" stroke="white" stroke-width="2" stroke-linecap="round" stroke-linejoin="round"/>
</svg>
