<svg width="24" height="24" viewBox="0 0 24 24" fill="none" xmlns="http://www.w3.org/2000/svg">
<path d="M2.29412 16.5294L1 17.8235V23H6.17647L13.9412 15.2353M19.1176 10.0588L23 6.17647L17.8235 1L13.9412 4.88235M19.1176 10.0588L17.8235 11.3529M19.1176 10.0588L13.9412 4.88235M13.9412 4.88235L5.52941 13.2941" stroke="#323131" stroke-width="2" stroke-linecap="round" stroke-linejoin="round"/>
<path d="M2.29412 16.5294L1 17.8235V23H6.17647L13.9412 15.2353M19.1176 10.0588L23 6.17647L17.8235 1L13.9412 4.88235M19.1176 10.0588L17.8235 11.3529M19.1176 10.0588L13.9412 4.88235M13.9412 4.88235L5.52941 13.2941" stroke="#323131" stroke-width="2" stroke-linecap="round" stroke-linejoin="round"/>
<path d="M2.29412 16.5294L1 17.8235V23H6.17647L13.9412 15.2353M19.1176 10.0588L23 6.17647L17.8235 1L13.9412 4.88235M19.1176 10.0588L17.8235 11.3529M19.1176 10.0588L13.9412 4.88235M13.9412 4.88235L5.52941 13.2941" stroke="#323131" stroke-width="2" stroke-linecap="round" stroke-linejoin="round"/>
<path d="M2.29412 16.5294L1 17.8235V23H6.17647L13.9412 15.2353M19.1176 10.0588L23 6.17647L17.8235 1L13.9412 4.88235M19.1176 10.0588L17.8235 11.3529M19.1176 10.0588L13.9412 4.88235M13.9412 4.88235L5.52941 13.2941" stroke="white" stroke-width="2" stroke-linecap="round" stroke-linejoin="round"/>
</svg>
