<svg width="54" height="54" viewBox="0 0 54 54" fill="none" xmlns="http://www.w3.org/2000/svg">
<circle cx="27" cy="27" r="27" fill="#3C4242"/>
<path d="M16.2941 31.5294L15 32.8235V38H20.1765L27.9412 30.2353M33.1176 25.0588L37 21.1765L31.8235 16L27.9412 19.8824M33.1176 25.0588L31.8235 26.3529M33.1176 25.0588L27.9412 19.8824M27.9412 19.8824L19.5294 28.2941" stroke="#323131" stroke-width="2" stroke-linecap="round" stroke-linejoin="round"/>
<path d="M16.2941 31.5294L15 32.8235V38H20.1765L27.9412 30.2353M33.1176 25.0588L37 21.1765L31.8235 16L27.9412 19.8824M33.1176 25.0588L31.8235 26.3529M33.1176 25.0588L27.9412 19.8824M27.9412 19.8824L19.5294 28.2941" stroke="#323131" stroke-width="2" stroke-linecap="round" stroke-linejoin="round"/>
<path d="M16.2941 31.5294L15 32.8235V38H20.1765L27.9412 30.2353M33.1176 25.0588L37 21.1765L31.8235 16L27.9412 19.8824M33.1176 25.0588L31.8235 26.3529M33.1176 25.0588L27.9412 19.8824M27.9412 19.8824L19.5294 28.2941" stroke="#323131" stroke-width="2" stroke-linecap="round" stroke-linejoin="round"/>
<path d="M16.2941 31.5294L15 32.8235V38H20.1765L27.9412 30.2353M33.1176 25.0588L37 21.1765L31.8235 16L27.9412 19.8824M33.1176 25.0588L31.8235 26.3529M33.1176 25.0588L27.9412 19.8824M27.9412 19.8824L19.5294 28.2941" stroke="white" stroke-width="2" stroke-linecap="round" stroke-linejoin="round"/>
</svg>
