<svg width="72" height="72" viewBox="0 0 72 72" fill="none" xmlns="http://www.w3.org/2000/svg">
<path fill-rule="evenodd" clip-rule="evenodd" d="M38.4575 72H3.97385C1.77851 72 0 70.2204 0 68.0259V3.97382C0 1.77878 1.77879 0 3.97385 0H68.0264C70.2209 0 72 1.77878 72 3.97382V68.0259C72 70.2207 70.2206 72 68.0264 72H49.679V44.1176H59.0378L60.4391 33.2514H49.679V26.314C49.679 23.1679 50.5526 21.024 55.0639 21.024L60.818 21.0215V11.3026C59.8228 11.1702 56.4072 10.8744 52.4333 10.8744C44.1372 10.8744 38.4575 15.9383 38.4575 25.2378V33.2514H29.0747V44.1176H38.4575V72Z" fill="#4460A0"/>
</svg>
