<svg width="37" height="26" viewBox="0 0 37 26" fill="none" xmlns="http://www.w3.org/2000/svg">
<path d="M34.8333 3.66667H1.83333C0.733333 3.66667 0 2.93333 0 1.83333C0 0.733333 0.733333 0 1.83333 0H34.8333C35.9333 0 36.6667 0.733333 36.6667 1.83333C36.6667 2.93333 35.9333 3.66667 34.8333 3.66667ZM34.8333 14.6667H1.83333C0.733333 14.6667 0 13.9333 0 12.8333C0 11.7333 0.733333 11 1.83333 11H34.8333C35.9333 11 36.6667 11.7333 36.6667 12.8333C36.6667 13.9333 35.9333 14.6667 34.8333 14.6667ZM34.8333 25.6667H1.83333C0.733333 25.6667 0 24.9333 0 23.8333C0 22.7333 0.733333 22 1.83333 22H34.8333C35.9333 22 36.6667 22.7333 36.6667 23.8333C36.6667 24.9333 35.9333 25.6667 34.8333 25.6667Z" fill="white"/>
</svg>
