<svg width="30" height="30" viewBox="0 0 30 30" fill="none" xmlns="http://www.w3.org/2000/svg">
<path d="M21.25 11.4474L21.1552 10.1696C21.0684 8.99903 20.0568 8.09211 18.8381 8.09211H16.355M7.5 23.75H6.07316C4.725 23.75 3.65997 22.6486 3.75602 21.3538L4.58568 10.1696C4.67251 8.99903 5.68406 8.09211 6.90282 8.09211H9.38588M9.38588 8.09211V5.85526C9.38588 4.0022 10.946 2.5 12.8704 2.5C14.7949 2.5 16.355 4.0022 16.355 5.85526V8.09211M9.38588 8.09211H16.355M21.25 18.75C21.25 20.1307 20.1307 21.25 18.75 21.25C17.3693 21.25 16.25 20.1307 16.25 18.75M13.75 26.25H23.75C25.1307 26.25 26.25 25.1307 26.25 23.75V17.5C26.25 16.1193 25.1307 15 23.75 15H13.75C12.3693 15 11.25 16.1193 11.25 17.5V23.75C11.25 25.1307 12.3693 26.25 13.75 26.25Z" stroke="#807D7E" stroke-width="1.5" stroke-linecap="round"/>
</svg>
