<svg width="32" height="32" viewBox="0 0 32 32" fill="none" xmlns="http://www.w3.org/2000/svg">
<path d="M4 5.3335H4.80842C6.16925 5.3335 7.31178 6.35816 7.45936 7.71097L8.54064 17.6227C8.68822 18.9755 9.83075 20.0002 11.1916 20.0002H22.728C23.947 20.0002 25.0108 19.1736 25.312 17.9925L27.1519 10.7776C27.5819 9.09155 26.308 7.45201 24.5679 7.45201H8.8M8.83301 24.8334H9.83301M8.83301 25.8334H9.83301M23.4997 24.8334H24.4997M23.4997 25.8334H24.4997M10.6667 25.3335C10.6667 26.0699 10.0697 26.6668 9.33333 26.6668C8.59695 26.6668 8 26.0699 8 25.3335C8 24.5971 8.59695 24.0002 9.33333 24.0002C10.0697 24.0002 10.6667 24.5971 10.6667 25.3335ZM25.3333 25.3335C25.3333 26.0699 24.7364 26.6668 24 26.6668C23.2636 26.6668 22.6667 26.0699 22.6667 25.3335C22.6667 24.5971 23.2636 24.0002 24 24.0002C24.7364 24.0002 25.3333 24.5971 25.3333 25.3335Z" stroke="#807D7E" stroke-width="1.5" stroke-linecap="round"/>
</svg>
