<svg width="22" height="24" viewBox="0 0 22 24" fill="none" xmlns="http://www.w3.org/2000/svg">
<path fill-rule="evenodd" clip-rule="evenodd" d="M8.82926 2.40568e-05H12.7787C13.0314 -0.000150227 13.2516 -0.000299774 13.4595 0.0350923C14.2809 0.174893 14.9918 0.720974 15.376 1.50735C15.4732 1.7064 15.5427 1.92908 15.6225 2.1847L15.753 2.60161C15.775 2.67218 15.7813 2.69216 15.7866 2.7079C15.9912 3.31056 16.5215 3.71796 17.1225 3.7342C17.1384 3.73463 17.1577 3.7347 17.2279 3.7347H20.7318C21.2156 3.7347 21.6078 4.15271 21.6078 4.66837C21.6078 5.18401 21.2156 5.60203 20.7318 5.60203H0.875988C0.392197 5.60203 0 5.18401 0 4.66837C0 4.15271 0.392197 3.7347 0.875988 3.7347H4.38003C4.45017 3.7347 4.46953 3.73463 4.48533 3.7342C5.08643 3.71796 5.61673 3.31059 5.82126 2.70792C5.82664 2.69207 5.83282 2.67253 5.855 2.60161L5.98536 2.18472C6.06512 1.92912 6.13464 1.7064 6.23189 1.50735C6.61608 0.720974 7.32692 0.174893 8.14836 0.0350923C8.35629 -0.000299774 8.57651 -0.000150227 8.82926 2.40568e-05ZM7.30942 3.7347C7.36958 3.60894 7.4229 3.47826 7.46877 3.34311C7.48269 3.30207 7.49636 3.25838 7.5139 3.20226L7.63046 2.82952C7.73695 2.48903 7.76148 2.41959 7.78579 2.36981C7.91386 2.10768 8.15081 1.92566 8.42462 1.87905C8.47665 1.8702 8.54614 1.86738 8.88287 1.86738H12.725C13.0617 1.86738 13.1313 1.8702 13.1833 1.87905C13.457 1.92566 13.694 2.10768 13.8222 2.36981C13.8465 2.41959 13.871 2.48902 13.9774 2.82952L14.0939 3.20204L14.1392 3.34314C14.1851 3.47827 14.2383 3.60894 14.2985 3.7347H7.30942Z" fill="white"/>
<path d="M3.41904 7.24275C3.3856 6.74661 2.95188 6.37124 2.45029 6.40431C1.94871 6.43738 1.5692 6.86639 1.60264 7.36253L2.16509 15.7077C2.26885 17.2475 2.35266 18.4913 2.54923 19.4673C2.75361 20.4821 3.10121 21.3297 3.81918 21.9941C4.53715 22.6584 5.41527 22.9452 6.45249 23.0793C7.45011 23.2085 8.7103 23.2085 10.2705 23.2084H11.3372C12.8974 23.2085 14.1576 23.2085 15.1553 23.0793C16.1925 22.9452 17.0707 22.6584 17.7887 21.9941C18.5066 21.3297 18.8542 20.4821 19.0586 19.4673C19.2552 18.4914 19.3389 17.2475 19.4427 15.7077L20.0052 7.36253C20.0386 6.86639 19.6591 6.43738 19.1575 6.40431C18.6559 6.37124 18.2222 6.74661 18.1888 7.24275L17.6305 15.5247C17.5215 17.1427 17.4439 18.2684 17.2732 19.1156C17.1077 19.9372 16.8767 20.3721 16.5449 20.6792C16.2131 20.9862 15.759 21.1853 14.9192 21.2939C14.0534 21.4059 12.9126 21.4077 11.2732 21.4077H10.3346C8.69525 21.4077 7.55439 21.4059 6.6886 21.2939C5.84877 21.1853 5.39468 20.9862 5.06287 20.6792C4.73105 20.3721 4.50005 19.9372 4.33458 19.1156C4.16399 18.2684 4.08628 17.1427 3.97723 15.5247L3.41904 7.24275Z" fill="white"/>
<path d="M8.01339 9.60815C8.50812 9.5573 8.94935 9.92765 8.9988 10.435L9.59897 16.591C9.64843 17.0985 9.28748 17.551 8.7927 17.6017C8.29799 17.6525 7.85682 17.2822 7.80735 16.7749L7.20717 10.6188C7.1577 10.1113 7.51866 9.65888 8.01339 9.60815Z" fill="white"/>
<path d="M13.5945 9.60815C14.0892 9.65888 14.4502 10.1113 14.4007 10.6188L13.8006 16.7749C13.7511 17.2822 13.3099 17.6525 12.8152 17.6017C12.3204 17.551 11.9595 17.0985 12.0089 16.591L12.6091 10.435C12.6586 9.92765 13.0998 9.5573 13.5945 9.60815Z" fill="white"/>
</svg>
