<svg width="82" height="82" viewBox="0 0 82 82" fill="none" xmlns="http://www.w3.org/2000/svg">
<path d="M69.5309 26.363C69.5719 26.9933 69.5719 27.6288 69.5719 28.2643C69.5719 47.7188 54.7658 70.151 27.6904 70.151V70.1407C19.6909 70.1519 11.8573 67.8603 5.125 63.5397C12.9068 64.4747 20.7414 62.281 26.9062 57.441C23.8346 57.3823 20.8581 56.3653 18.3927 54.5322C15.9273 52.699 14.0964 50.1413 13.1559 47.2166C15.3647 47.642 17.6403 47.5548 19.803 46.9603C16.4724 46.2874 13.477 44.4832 11.3249 41.8537C9.17276 39.2243 7.99629 35.9314 7.995 32.5335V32.349C10.045 33.4867 12.3359 34.1171 14.678 34.194C11.5599 32.1118 9.35239 28.9197 8.50499 25.2673C7.65759 21.6149 8.23395 17.7769 10.1167 14.5345C13.8129 19.0816 18.4242 22.8004 23.6513 25.4493C28.8783 28.0981 34.6041 29.6177 40.4567 29.9095C39.7206 26.7527 40.0463 23.4412 41.3834 20.4884C42.7205 17.5355 44.9944 15.1062 47.8525 13.577C50.7106 12.0478 53.9933 11.5042 57.1918 12.0303C60.3903 12.5564 63.3259 14.123 65.5436 16.4871C68.8401 15.8368 72.0015 14.6287 74.8916 12.915C73.7927 16.3217 71.4945 19.2136 68.4239 21.0535C71.3412 20.7097 74.1901 19.9288 76.875 18.737C74.9001 21.6956 72.4131 24.2781 69.5309 26.363Z" fill="#1D9BF0"/>
</svg>
